<svg width="982" height="151" viewBox="0 0 982 151" fill="none" xmlns="http://www.w3.org/2000/svg">
<path d="M76.068 151C65.1346 151 55.068 149.2 45.868 145.6C36.668 142 28.668 137 21.868 130.6C15.068 124.067 9.8013 116.467 6.06797 107.8C2.33464 99 0.467969 89.4 0.467969 79C0.467969 68.6 2.33464 59.0667 6.06797 50.4C9.8013 41.6 15.068 34 21.868 27.6C28.668 21.0667 36.668 16 45.868 12.4C55.068 8.79999 65.068 6.99999 75.868 6.99999C86.8013 6.99999 96.8013 8.79999 105.868 12.4C115.068 16 123.068 21.0667 129.868 27.6C136.668 34 141.935 41.6 145.668 50.4C149.401 59.0667 151.268 68.6 151.268 79C151.268 89.4 149.401 99 145.668 107.8C141.935 116.6 136.668 124.2 129.868 130.6C123.068 137 115.068 142 105.868 145.6C96.8013 149.2 86.868 151 76.068 151ZM75.868 128.2C82.9346 128.2 89.468 127 95.468 124.6C101.468 122.2 106.668 118.8 111.068 114.4C115.468 109.867 118.868 104.667 121.268 98.8C123.801 92.8 125.068 86.2 125.068 79C125.068 71.8 123.801 65.2667 121.268 59.4C118.868 53.4 115.468 48.2 111.068 43.8C106.668 39.2667 101.468 35.8 95.468 33.4C89.468 31 82.9346 29.8 75.868 29.8C68.8013 29.8 62.268 31 56.268 33.4C50.4013 35.8 45.2013 39.2667 40.668 43.8C36.268 48.2 32.8013 53.4 30.268 59.4C27.868 65.2667 26.668 71.8 26.668 79C26.668 86.0667 27.868 92.6 30.268 98.6C32.8013 104.6 36.268 109.867 40.668 114.4C45.068 118.8 50.268 122.2 56.268 124.6C62.268 127 68.8013 128.2 75.868 128.2ZM237.027 41C245.561 41 253.161 42.6667 259.827 46C266.627 49.3333 271.961 54.4667 275.827 61.4C279.694 68.2 281.627 77 281.627 87.8V149H256.627V91C256.627 81.5333 254.361 74.4667 249.827 69.8C245.427 65.1333 239.227 62.8 231.227 62.8C225.361 62.8 220.161 64 215.627 66.4C211.094 68.8 207.561 72.4 205.027 77.2C202.627 81.8667 201.427 87.8 201.427 95V149H176.427V0.599991H201.427V71L196.027 62.2C199.761 55.4 205.161 50.2 212.227 46.6C219.427 42.8667 227.694 41 237.027 41ZM313.341 149V42.2H337.141V71.6L334.341 63C337.541 55.8 342.541 50.3333 349.341 46.6C356.275 42.8667 364.875 41 375.141 41V64.8C374.075 64.5333 373.075 64.4 372.141 64.4C371.208 64.2667 370.275 64.2 369.341 64.2C359.875 64.2 352.341 67 346.741 72.6C341.141 78.0667 338.341 86.2667 338.341 97.2V149H313.341ZM423.855 149L384.655 42.2H408.255L441.855 136.4H430.655L465.855 42.2H486.855L521.055 136.4H510.055L544.655 42.2H566.855L527.455 149H503.455L472.255 65.6H479.655L447.855 149H423.855ZM629.245 150.4C620.178 150.4 612.178 148.733 605.245 145.4C598.311 141.933 592.911 136.733 589.045 129.8C585.178 122.733 583.245 113.867 583.245 103.2V42.2H608.245V99.8C608.245 109.4 610.378 116.6 614.645 121.4C619.045 126.067 625.245 128.4 633.245 128.4C639.111 128.4 644.178 127.2 648.445 124.8C652.845 122.4 656.245 118.8 658.645 114C661.178 109.2 662.445 103.267 662.445 96.2V42.2H687.445V149H663.645V120.2L667.845 129C664.245 135.933 658.978 141.267 652.045 145C645.111 148.6 637.511 150.4 629.245 150.4ZM720.177 149V42.2H743.977V71.6L741.177 63C744.377 55.8 749.377 50.3333 756.177 46.6C763.111 42.8667 771.711 41 781.977 41V64.8C780.911 64.5333 779.911 64.4 778.977 64.4C778.044 64.2667 777.111 64.2 776.177 64.2C766.711 64.2 759.177 67 753.577 72.6C747.977 78.0667 745.177 86.2667 745.177 97.2V149H720.177ZM937.985 41C946.518 41 954.052 42.6667 960.585 46C967.252 49.3333 972.452 54.4667 976.185 61.4C979.918 68.2 981.785 77 981.785 87.8V149H956.785V91C956.785 81.5333 954.718 74.4667 950.585 69.8C946.452 65.1333 940.518 62.8 932.785 62.8C927.318 62.8 922.452 64 918.185 66.4C914.052 68.8 910.785 72.3333 908.385 77C906.118 81.6667 904.985 87.6 904.985 94.8V149H879.985V91C879.985 81.5333 877.918 74.4667 873.785 69.8C869.652 65.1333 863.718 62.8 855.985 62.8C850.518 62.8 845.652 64 841.385 66.4C837.252 68.8 833.985 72.3333 831.585 77C829.318 81.6667 828.185 87.6 828.185 94.8V149H803.185V42.2H826.985V70.6L822.785 62.2C826.385 55.2667 831.585 50 838.385 46.4C845.318 42.8 853.185 41 861.985 41C871.985 41 880.652 43.4667 887.985 48.4C895.452 53.3333 900.385 60.8 902.785 70.8L892.985 67.4C896.452 59.4 902.185 53 910.185 48.2C918.185 43.4 927.452 41 937.985 41Z" fill="#E2E2E2"/>
</svg>
